<svg xmlns="http://www.w3.org/2000/svg" fill="none" viewBox="0 0 172 172" height="172" width="172">
<mask height="62" width="134" y="99" x="23" maskUnits="userSpaceOnUse" style="mask-type:alpha" id="mask0_3259_9431">
<path fill="#5E6673" d="M23.895 99.938H156.391V160.951H23.895V99.938Z"></path>
</mask>
<g mask="url(#mask0_3259_9431)">
<path fill="#E6E7EA" d="M166.958 203.188C166.958 245.613 132.567 280.004 90.1424 280.004C47.7183 280.004 13.3267 245.613 13.3267 203.188C13.3267 160.764 47.7183 126.373 90.1424 126.373C132.567 126.373 166.958 160.764 166.958 203.188Z"></path>
</g>
<path fill="#797979" d="M83.8137 33.2596C85.3094 33.2596 86.5219 34.4721 86.5219 35.9678C86.5219 37.4635 85.3094 38.676 83.8137 38.676C82.318 38.676 81.1055 37.4635 81.1055 35.9678C81.1055 34.4721 82.318 33.2596 83.8137 33.2596ZM87.1641 35.9678C87.1641 34.1174 85.664 32.6174 83.8137 32.6174C81.9633 32.6174 80.4633 34.1174 80.4633 35.9678C80.4633 37.8181 81.9633 39.3181 83.8137 39.3181C85.664 39.3181 87.1641 37.8181 87.1641 35.9678Z" clip-rule="evenodd" fill-rule="evenodd"></path>
<path fill="#F0B90B" d="M99.1036 31.4276C99.1412 31.4193 99.1787 31.4105 99.2162 31.4012C101.573 30.8169 103.011 28.4323 102.426 26.0751C101.842 23.7178 99.4574 22.2806 97.1001 22.865C95.7181 23.2075 94.6523 24.169 94.1248 25.3809L94.103 25.3544L91.23 33.5634L99.1188 31.446L99.1036 31.4276Z" clip-rule="evenodd" fill-rule="evenodd"></path>
<path fill="#935A30" d="M93.5424 29.5618C96.8329 31.4616 97.9587 35.6719 96.057 38.9657C94.1553 42.2596 89.9462 43.3897 86.6557 41.4899C83.3652 39.5902 82.2394 35.3799 84.1411 32.0861C86.0428 28.7922 90.2519 27.6621 93.5424 29.5618Z"></path>
<mask height="15" width="14" y="28" x="83" maskUnits="userSpaceOnUse" style="mask-type:alpha" id="mask1_3259_9431">
<path fill="#935A30" d="M93.5405 29.5603C96.831 31.4601 97.9568 35.6703 96.0551 38.9642C94.1534 42.258 89.9443 43.3882 86.6538 41.4884C83.3633 39.5886 82.2374 35.3784 84.1391 32.0845C86.0409 28.7907 90.25 27.6605 93.5405 29.5603Z"></path>
</mask>
<g mask="url(#mask1_3259_9431)">
<path fill="#F0B90B" d="M93.7882 31.4472C92.1734 32.0657 90.2779 31.7803 88.9014 30.5471C86.9419 28.7915 86.7765 25.7798 88.5321 23.8203C90.2877 21.8607 93.2995 21.6954 95.259 23.451C96.6355 24.6842 97.1266 26.5372 96.6886 28.21C98.3033 27.5915 100.199 27.8769 101.575 29.1101C103.535 30.8657 103.7 33.8774 101.945 35.8369C100.189 37.7965 97.1773 37.9618 95.2177 36.2062C93.8412 34.973 93.3501 33.12 93.7882 31.4472Z" clip-rule="evenodd" fill-rule="evenodd"></path>
</g>
<path fill="#797979" d="M95.8132 35.7236C97.3089 35.7236 98.5214 36.9361 98.5214 38.4318C98.5214 39.9275 97.3089 41.14 95.8132 41.14C94.3175 41.14 93.105 39.9275 93.105 38.4318C93.105 36.9361 94.3175 35.7236 95.8132 35.7236ZM99.1636 38.4318C99.1636 36.5814 97.6636 35.0814 95.8132 35.0814C93.9628 35.0814 92.4628 36.5814 92.4628 38.4318C92.4628 40.2822 93.9628 41.7822 95.8132 41.7822C97.6636 41.7822 99.1636 40.2822 99.1636 38.4318Z" clip-rule="evenodd" fill-rule="evenodd"></path>
<path fill="#935A30" d="M46.8771 16.9587L56.8932 24.2542L58.8883 28.1814L51.9663 31.6081L47.0512 27.3391C44.8243 25.4049 44.202 22.2021 45.5424 19.5747L46.8771 16.9587Z"></path>
<path fill="#935A30" d="M51.6695 18.0127C52.3473 17.4599 53.3448 17.5612 53.8976 18.239L56.8383 21.8447C57.3911 22.5224 57.2898 23.52 56.612 24.0728C55.9342 24.6256 54.9366 24.5243 54.3838 23.8465L51.4431 20.2408C50.8904 19.563 50.9917 18.5655 51.6695 18.0127Z" clip-rule="evenodd" fill-rule="evenodd"></path>
<path fill="#935A30" d="M99.966 93.1634L99.5587 67.4496L86.6904 67.6534L87.1067 93.9429C87.2129 100.651 92.6812 106.033 99.3901 106.033L123.48 106.033L123.48 93.1634L99.966 93.1634Z" clip-rule="evenodd" fill-rule="evenodd"></path>
<path fill="#F3C21B" d="M142.306 93.1633L121.09 93.1633L121.09 106.033L133.565 106.144L142.306 116.142L142.306 104.653L142.306 93.1633Z"></path>
<path fill="#935A30" d="M81.3959 103.631L94.8154 67.6571L82.7571 63.159L69.3007 99.232C68.7884 100.606 68.526 102.06 68.526 103.526V129.848H81.3959V103.631Z" clip-rule="evenodd" fill-rule="evenodd"></path>
<path fill="#929AA5" d="M71.5615 93.1717L81.6526 65.8817H101.572L108.562 93.1717H71.5615Z"></path>
<path fill="#F3C21B" d="M81.396 143.064V121.854H68.531L68.4196 134.325L58.4254 143.064L81.396 143.064Z"></path>
<path fill="#935A30" d="M90.1225 56.554C88.261 58.7879 84.9411 59.0897 82.7072 57.2282L50.9117 30.7324C48.6779 28.8709 48.3761 25.5509 50.2376 23.3171C52.0991 21.0833 55.419 20.7815 57.6528 22.643L89.4483 49.1388C91.6821 51.0003 91.984 54.3202 90.1225 56.554Z" clip-rule="evenodd" fill-rule="evenodd"></path>
<path fill="#0B0E11" d="M101.586 54.1409V65.9899L81.6686 65.99V54.1409C81.6686 48.6407 86.1273 44.182 91.6275 44.1819C97.1277 44.1819 101.586 48.6407 101.586 54.1409Z"></path>
<path fill="#935A30" d="M135.65 18.7927L133.64 14.4304L125.78 20.9523L130.479 28.5496L133.935 25.8539C136.076 24.1836 136.787 21.2592 135.65 18.7927Z"></path>
<path fill="#935A30" d="M129.085 15.3073C128.373 14.9263 127.487 15.1949 127.106 15.9071L125.304 19.2757C124.923 19.9879 125.192 20.8741 125.904 21.2551C126.616 21.636 127.502 21.3674 127.883 20.6552L129.685 17.2867C130.066 16.5744 129.797 15.6882 129.085 15.3073Z" clip-rule="evenodd" fill-rule="evenodd"></path>
<path fill="#935A30" d="M132.136 20.1062C130.224 17.9159 126.898 17.6905 124.707 19.603L92.9948 47.2914C90.8044 49.2038 90.5791 52.5298 92.4915 54.7202C94.4039 56.9106 97.7299 57.1359 99.9203 55.2235L131.633 27.535C133.823 25.6226 134.049 22.2966 132.136 20.1062Z" clip-rule="evenodd" fill-rule="evenodd"></path>
</svg>
