<svg xmlns="http://www.w3.org/2000/svg" fill="none" viewBox="0 0 570 360" height="360" width="570">
<path fill="#FFBEA6" d="M321.793 123.32C322.568 122.037 324.236 121.626 325.518 122.402L330.001 125.112C331.283 125.887 331.694 127.555 330.918 128.837C330.143 130.119 328.475 130.53 327.193 129.755L322.711 127.045C321.429 126.27 321.018 124.602 321.793 123.32Z" clip-rule="evenodd" fill-rule="evenodd"></path>
<path fill="#929AA5" d="M222.215 309.419L222.215 114.869L233.591 114.869L233.591 309.419L222.215 309.419Z" clip-rule="evenodd" fill-rule="evenodd"></path>
<path fill="#929AA5" d="M227.188 268.393L269.28 226.3L272.799 229.819L230.707 271.912L227.188 268.393Z" clip-rule="evenodd" fill-rule="evenodd"></path>
<path fill="#929AA5" d="M194.578 147L228.004 180.427L224.485 183.946L191.059 150.519L194.578 147Z" clip-rule="evenodd" fill-rule="evenodd"></path>
<path fill="url(#paint0_linear_2893_19148)" d="M227.899 33.1103C204.537 33.1103 185.598 52.0495 185.598 75.4121C185.598 98.7747 204.537 117.714 227.899 117.714C251.262 117.714 270.201 98.7747 270.201 75.4121C270.201 52.0495 251.262 33.1103 227.899 33.1103ZM227.899 92.5568L245.048 75.4074L227.899 58.2581L210.75 75.4074L227.899 92.5568Z" clip-rule="evenodd" fill-rule="evenodd"></path>
<path fill="#F8D33A" d="M198.147 75.4121C198.147 58.9805 211.468 45.6601 227.899 45.6601C244.331 45.6601 257.651 58.9805 257.651 75.4121C257.651 91.8436 244.331 105.164 227.899 105.164C211.468 105.164 198.147 91.8436 198.147 75.4121ZM185.598 75.4121C185.598 52.0495 204.537 33.1103 227.899 33.1103C251.262 33.1103 270.201 52.0495 270.201 75.4121C270.201 98.7747 251.262 117.714 227.899 117.714C204.537 117.714 185.598 98.7747 185.598 75.4121Z" clip-rule="evenodd" fill-rule="evenodd"></path>
<path fill="url(#paint1_linear_2893_19148)" d="M276.952 203.737C266.744 203.737 258.468 212.013 258.468 222.222C258.468 232.43 266.744 240.706 276.952 240.706C287.161 240.706 295.437 232.43 295.437 222.222C295.437 212.013 287.161 203.737 276.952 203.737ZM276.957 229.716L284.451 222.222L276.957 214.728L269.464 222.222L276.957 229.716Z" clip-rule="evenodd" fill-rule="evenodd"></path>
<path fill="#F8D33A" d="M276.952 209.221C269.772 209.221 263.952 215.041 263.952 222.222C263.952 229.402 269.772 235.222 276.952 235.222C284.133 235.222 289.953 229.402 289.953 222.222C289.953 215.041 284.133 209.221 276.952 209.221ZM276.952 203.737C266.744 203.737 258.468 212.013 258.468 222.222C258.468 232.43 266.744 240.706 276.952 240.706C287.161 240.706 295.437 232.43 295.437 222.222C295.437 212.013 287.161 203.737 276.952 203.737Z" clip-rule="evenodd" fill-rule="evenodd"></path>
<path fill="url(#paint2_linear_2893_19148)" d="M187.373 119.139C174.023 119.139 163.2 129.961 163.2 143.311C163.2 156.661 174.023 167.483 187.373 167.483C200.723 167.483 211.545 156.661 211.545 143.311C211.545 129.961 200.723 119.139 187.373 119.139ZM187.381 153.11L197.181 143.311L187.381 133.511L177.582 143.311L187.381 153.11Z" clip-rule="evenodd" fill-rule="evenodd"></path>
<path fill="#F8D33A" d="M187.376 126.307C177.987 126.307 170.375 133.918 170.375 143.308C170.375 152.697 177.987 160.309 187.376 160.309C196.765 160.309 204.377 152.697 204.377 143.308C204.377 133.918 196.765 126.307 187.376 126.307ZM187.376 119.135C174.026 119.135 163.204 129.958 163.204 143.308C163.204 156.658 174.026 167.48 187.376 167.48C200.726 167.48 211.548 156.658 211.548 143.308C211.548 129.958 200.726 119.135 187.376 119.135Z" clip-rule="evenodd" fill-rule="evenodd"></path>
<path fill="#929AA5" d="M227.902 148.615L263.26 113.257L284.612 91.9523C304.14 72.4247 335.8 72.4247 355.328 91.9523L319.97 127.31L298.618 148.615C279.09 168.143 247.429 168.143 227.902 148.615Z"></path>
<path fill="#929AA5" d="M126.967 190.146C145.577 171.536 175.75 171.536 194.36 190.146L228.057 223.843C209.447 242.453 179.274 242.453 160.664 223.843L126.967 190.146Z"></path>
<path fill="#929AA5" d="M237.853 173.166L260.248 173.166L284.065 173.166C296.433 173.166 306.46 183.034 306.46 195.206L284.065 195.206L260.248 195.206C247.88 195.206 237.853 185.338 237.853 173.166Z"></path>
<path fill="#929AA5" d="M201.595 186.322L207.638 180.278L213.681 186.322L207.638 192.365L201.595 186.322Z"></path>
<path fill="#929AA5" d="M240.701 275.54L249.944 266.297L259.186 275.54L249.944 284.782L240.701 275.54Z"></path>
<path fill="#76808E" d="M453.883 289.338L409.282 178.461L388.768 186.713L433.369 297.59L453.883 289.338Z" clip-rule="evenodd" fill-rule="evenodd"></path>
<path fill="#76808E" d="M376.56 174.862V294.215H398.671V174.862H376.56Z" clip-rule="evenodd" fill-rule="evenodd"></path>
<path fill="#FFBEA6" d="M349.425 158.208L320.349 140.422L329.789 124.99L358.809 142.741L389.663 142.741C394.659 142.741 398.709 146.791 398.709 151.787C398.709 156.782 394.659 160.832 389.663 160.832L358.744 160.832C355.455 160.832 352.23 159.924 349.425 158.208Z" clip-rule="evenodd" fill-rule="evenodd"></path>
<path fill="#0B0E11" d="M403.751 151.787C403.751 146.791 399.701 142.741 394.706 142.741H368.239V160.832H394.706C399.701 160.832 403.751 156.782 403.751 151.787Z" clip-rule="evenodd" fill-rule="evenodd"></path>
<path fill="#0B0E11" d="M412.737 160.836V181.164H376.561V160.836C376.561 150.846 384.659 142.748 394.649 142.748C404.639 142.748 412.737 150.846 412.737 160.836Z"></path>
<path fill="#0B0E11" d="M398.71 307.404L398.659 272.81L376.567 272.81V291.821L357.931 307.451L398.71 307.404Z"></path>
<path fill="#0B0E11" d="M462.749 308.012L446.985 272.204L422.968 271.765L430.849 292.07L411.58 308.059L462.749 308.012Z"></path>
<path fill="#FFBEA6" d="M308.659 126.345L331.346 130.083L336.358 135.941L326.67 143.635L316.442 140.593C311.863 139.231 308.714 135.035 308.684 130.259L308.659 126.345Z"></path>
<path fill="#FFBEA6" d="M381.915 124.995C381.915 131.682 387.336 137.103 394.023 137.103C400.71 137.103 406.131 131.682 406.131 124.995C406.131 118.308 400.71 112.887 394.023 112.887C387.336 112.887 381.915 118.308 381.915 124.995Z"></path>
<mask height="26" width="26" y="112" x="381" maskUnits="userSpaceOnUse" style="mask-type:alpha" id="mask0_2893_19148">
<path fill="#FF7E0D" d="M382.331 121.859C380.6 128.318 384.433 134.957 390.892 136.688C397.351 138.419 403.991 134.586 405.721 128.126C407.452 121.667 403.619 115.028 397.16 113.297C390.701 111.567 384.061 115.4 382.331 121.859Z"></path>
</mask>
<g mask="url(#mask0_2893_19148)">
<path fill="#0B0E11" d="M389.211 118.828C380.598 116.52 375.488 107.668 377.795 99.0557C380.103 90.4435 388.955 85.3327 397.567 87.6403C406.18 89.9479 411.29 98.8002 408.983 107.412C408.446 109.416 407.555 111.231 406.395 112.806C408.003 112.559 409.688 112.634 411.361 113.082C417.82 114.813 421.653 121.452 419.923 127.911C418.192 134.37 411.553 138.203 405.093 136.473C398.634 134.742 394.801 128.103 396.532 121.644C396.805 120.625 397.2 119.672 397.697 118.795C395.012 119.541 392.098 119.601 389.211 118.828Z" clip-rule="evenodd" fill-rule="evenodd"></path>
</g>
<path fill="#FFBEA6" d="M339.271 188.512L363.387 180.123L368.583 182.458L361.59 193.465L349.959 194.254C347.017 194.453 344.108 193.541 341.806 191.698L339.096 189.527C338.735 189.238 338.834 188.664 339.271 188.512Z"></path>
<path fill="#FFBEA6" d="M403.692 153.115C408.688 153.115 412.737 157.164 412.737 162.16L412.737 190.355C412.737 203.402 399.204 212.045 387.367 206.559L356.718 192.354L364.326 175.94L394.647 189.994L394.647 162.16C394.647 157.164 398.696 153.115 403.692 153.115Z" clip-rule="evenodd" fill-rule="evenodd"></path>
<path fill="#0B0E11" d="M403.693 153.115C408.689 153.115 412.739 157.164 412.739 162.16L412.739 178.467L394.648 178.467L394.648 162.16C394.648 157.164 398.698 153.115 403.693 153.115Z" clip-rule="evenodd" fill-rule="evenodd"></path>
<path fill="#FFBEA6" d="M356.736 175.499C357.447 174.038 359.207 173.429 360.668 174.139L368.273 177.836C369.734 178.547 370.343 180.307 369.633 181.768C368.923 183.229 367.162 183.838 365.701 183.128L358.096 179.431C356.635 178.721 356.026 176.96 356.736 175.499Z" clip-rule="evenodd" fill-rule="evenodd"></path>
<defs>
<linearGradient gradientUnits="userSpaceOnUse" y2="33.1103" x2="227.899" y1="117.714" x1="227.899" id="paint0_linear_2893_19148">
<stop stop-color="#F0B90B"></stop>
<stop stop-color="#F8D33A" offset="1"></stop>
</linearGradient>
<linearGradient gradientUnits="userSpaceOnUse" y2="203.737" x2="276.952" y1="240.706" x1="276.952" id="paint1_linear_2893_19148">
<stop stop-color="#F0B90B"></stop>
<stop stop-color="#F8D33A" offset="1"></stop>
</linearGradient>
<linearGradient gradientUnits="userSpaceOnUse" y2="119.139" x2="187.373" y1="167.483" x1="187.373" id="paint2_linear_2893_19148">
<stop stop-color="#F0B90B"></stop>
<stop stop-color="#F8D33A" offset="1"></stop>
</linearGradient>
</defs>
</svg>
