<svg xmlns="http://www.w3.org/2000/svg" fill="none" viewBox="0 0 172 172" height="172" width="172">
<g clip-path="url(#clip0_3259_9374)">
<path fill="url(#paint0_linear_3259_9374)" d="M45.3405 79.3181C49.5332 75.1539 55.3106 72.5853 61.6761 72.6023L78.5727 72.6475L-28.7807 179.267L-41.9476 166.01L45.3405 79.3181Z"></path>
<path fill="url(#paint1_linear_3259_9374)" d="M64.2492 74.8185L80.2017 74.8443L-26.8738 181.188L-37.3338 170.656L55.5489 78.4081C57.7842 76.1879 60.8614 74.8155 64.2492 74.8185Z"></path>
<path fill="url(#paint2_linear_3259_9374)" d="M87.8008 80.7504L79.2283 72.0947L-13.4393 163.871L-4.86675 172.527L87.8008 80.7504Z"></path>
<path fill="#AEB4BC" d="M66.6777 72.6535L71.2269 68.1355L79.0395 76.0019L74.4904 80.5199L66.6777 72.6535Z"></path>
<path fill="#AEB4BC" d="M66.6401 72.6166L71.1893 68.0986L79.0386 76.0019L74.4894 80.5199L66.6401 72.6166Z"></path>
<path fill="#929AA5" d="M114.001 60.0648L105.348 51.7581L88.0146 51.6886L71.0059 68.3535L89.2878 85.9442L114.001 60.0648Z"></path>
<path fill="#E8A37D" d="M47.8236 117.578L47.7446 134.513L60.0768 122.181L51.6496 113.753L47.8236 117.578Z"></path>
<path fill="#0B0E11" d="M38.7354 117.578V134.436L38.7354 143.395L47.8223 134.436V117.578H38.7354Z"></path>
<path fill="url(#paint3_linear_3259_9374)" d="M108.298 73.9552L56.2488 126.004L47.8223 117.578L99.8716 65.5287L108.298 73.9552Z" clip-rule="evenodd" fill-rule="evenodd"></path>
<path fill="url(#paint4_linear_3259_9374)" d="M116.006 80.094C124.454 80.4751 128.405 90.7289 122.397 96.6805L99.6015 119.261L91.215 110.794L110.42 91.7709L98.9855 91.2551C89.5314 90.8286 85.1821 79.2929 92.0012 72.7308L99.8421 65.1855L108.105 73.7722L102.184 79.4704L116.006 80.094Z" clip-rule="evenodd" fill-rule="evenodd"></path>
<path fill="#E8A37D" d="M123.376 71.1723L149.045 45.9697L141.618 38.4051L115.949 63.6077C113.86 65.6586 113.829 69.0146 115.88 71.1035C117.931 73.1924 121.287 73.2232 123.376 71.1723Z" clip-rule="evenodd" fill-rule="evenodd"></path>
<path fill="#0B0E11" d="M123.375 71.1725L134.525 60.2246L127.097 52.6603L115.948 63.6083C113.859 65.6593 113.828 69.0153 115.879 71.1041C117.93 73.1929 121.286 73.2235 123.375 71.1725Z" clip-rule="evenodd" fill-rule="evenodd"></path>
<path fill="#E8A37D" d="M144.74 38.661C146.379 37.0787 148.99 37.1248 150.573 38.7639C152.155 40.4031 152.109 43.0146 150.47 44.5969L147.081 47.8683C146.104 48.8109 144.549 48.7834 143.606 47.8069L139.583 43.639L144.74 38.661Z"></path>
<path fill="#E8A37D" d="M144.532 37.3517C145.065 37.8754 145.072 38.7319 144.548 39.2645L140.571 43.3098C140.047 43.8425 139.191 43.8497 138.658 43.3259C138.125 42.8022 138.118 41.9457 138.642 41.4131L142.619 37.3678C143.143 36.8351 144 36.8279 144.532 37.3517Z" clip-rule="evenodd" fill-rule="evenodd"></path>
<path fill="#0B0E11" d="M104.354 60.4027L93.9007 70.8563L108.806 85.7618L124.555 70.0126L114.945 60.4027C112.021 57.478 107.279 57.478 104.354 60.4027Z"></path>
<path fill="#E8A37D" d="M124.01 51.7624C124.01 55.4321 121.035 58.407 117.365 58.407C113.696 58.407 110.721 55.4321 110.721 51.7624C110.721 48.0927 113.696 45.1178 117.365 45.1178C121.035 45.1178 124.01 48.0927 124.01 51.7624Z"></path>
<mask height="14" width="15" y="45" x="110" maskUnits="userSpaceOnUse" style="mask-type:alpha" id="mask0_3259_9374">
<path fill="#FF7E0D" d="M123.783 50.0423C124.733 53.587 122.629 57.2305 119.085 58.1803C115.54 59.1301 111.897 57.0265 110.947 53.4818C109.997 49.9371 112.101 46.2936 115.645 45.3438C119.19 44.394 122.833 46.4976 123.783 50.0423Z"></path>
</mask>
<g mask="url(#mask0_3259_9374)">
<path fill="#0B0E11" d="M120.008 48.3799C124.734 47.1135 127.539 42.2555 126.272 37.5293C125.006 32.803 120.148 29.9983 115.422 31.2647C110.695 32.5311 107.891 37.3891 109.157 42.1153C109.452 43.2149 109.941 44.2105 110.577 45.075C109.695 44.9395 108.77 44.9808 107.852 45.2267C104.308 46.1765 102.204 49.82 103.154 53.3647C104.104 56.9093 107.747 59.0129 111.292 58.0631C114.837 57.1133 116.94 53.4698 115.99 49.9251C115.841 49.3662 115.624 48.8431 115.351 48.3622C116.825 48.7715 118.423 48.8044 120.008 48.3799Z" clip-rule="evenodd" fill-rule="evenodd"></path>
</g>
<path fill="#E8A37D" d="M91.2157 110.797L91.1194 127.76L103.452 115.428L95.0383 107.014L91.2157 110.797Z"></path>
<path fill="url(#paint5_linear_3259_9374)" d="M116.007 80.0941C124.455 80.4753 128.406 90.7291 122.398 96.6806L99.6023 119.261L91.2159 110.795L110.421 91.771L99.5589 91.2808L100.096 79.3761L116.007 80.0941Z" clip-rule="evenodd" fill-rule="evenodd"></path>
<path fill="url(#paint6_linear_3259_9374)" d="M116.006 80.0941C124.454 80.4753 128.405 90.7291 122.397 96.6806L99.6013 119.261L91.2149 110.795L110.42 91.771L99.558 91.2808L100.095 79.3761L116.006 80.0941Z" clip-rule="evenodd" fill-rule="evenodd"></path>
<path fill="#E8A37D" d="M97.4839 78.0908L87.9683 68.5752C85.8984 66.5052 82.5422 66.5052 80.4722 68.5752C78.4022 70.6452 78.4022 74.0013 80.4722 76.0713L89.9878 85.5869L97.4839 78.0908Z" clip-rule="evenodd" fill-rule="evenodd"></path>
<path fill="#E8A37D" d="M97.8373 81.791C99.4389 83.4113 99.4238 86.0232 97.8035 87.6248C96.1832 89.2265 93.5713 89.2113 91.9697 87.591L88.6584 84.2411C87.7043 83.2759 87.7134 81.72 88.6786 80.7659L92.7985 76.6935L97.8373 81.791Z"></path>
<path fill="#E8A37D" d="M99.3996 81.9401C98.8716 82.4685 98.0151 82.4688 97.4867 81.9408L93.4736 77.9308C92.9452 77.4028 92.9449 76.5463 93.4729 76.0179C94.0009 75.4894 94.8574 75.4891 95.3858 76.0172L99.3989 80.0272C99.9273 80.5552 99.9277 81.4116 99.3996 81.9401Z" clip-rule="evenodd" fill-rule="evenodd"></path>
<path fill="#0B0E11" d="M115.063 63.4775C115.05 60.5501 112.667 58.1873 109.74 58.1999L87.9502 58.294C78.6416 58.3343 74.0139 69.5958 80.6045 76.1695L83.0417 78.6005L90.5282 71.0947L88.3214 68.8936L109.785 68.8009C112.713 68.7883 115.076 66.4049 115.063 63.4775Z" clip-rule="evenodd" fill-rule="evenodd"></path>
<path fill="#0B0E11" d="M82.1318 110.788V127.67L82.1318 136.642L91.2194 127.665L91.2187 110.788H82.1318Z"></path>
</g>
<defs>
<linearGradient gradientUnits="userSpaceOnUse" y2="74.9286" x2="76.276" y1="142.421" x1="8.78316" id="paint0_linear_3259_9374">
<stop stop-opacity="0" stop-color="#F8D33A"></stop>
<stop stop-color="#F8D33A" offset="1"></stop>
</linearGradient>
<linearGradient gradientUnits="userSpaceOnUse" y2="131.134" x2="23.8963" y1="77.1726" x1="77.8574" id="paint1_linear_3259_9374">
<stop stop-color="white"></stop>
<stop stop-opacity="0" stop-color="white" offset="1"></stop>
</linearGradient>
<linearGradient gradientUnits="userSpaceOnUse" y2="166.564" x2="-10.7723" y1="74.7876" x1="81.8953" id="paint2_linear_3259_9374">
<stop stop-opacity="0.5" stop-color="white"></stop>
<stop stop-opacity="0" stop-color="white" offset="1"></stop>
</linearGradient>
<linearGradient gradientUnits="userSpaceOnUse" y2="121.791" x2="52.0356" y1="69.742" x1="104.085" id="paint3_linear_3259_9374">
<stop stop-color="#F0B90B"></stop>
<stop stop-color="#F8D33A" offset="1"></stop>
</linearGradient>
<linearGradient gradientUnits="userSpaceOnUse" y2="105.781" x2="86.122" y1="76.1862" x1="115.717" id="paint4_linear_3259_9374">
<stop stop-color="#F0B90B"></stop>
<stop stop-color="#F8D33A" offset="1"></stop>
</linearGradient>
<linearGradient gradientUnits="userSpaceOnUse" y2="109.467" x2="89.8084" y1="79.8718" x1="119.404" id="paint5_linear_3259_9374">
<stop stop-color="#F0B90B"></stop>
<stop stop-color="#F8D33A" offset="1"></stop>
</linearGradient>
<linearGradient gradientUnits="userSpaceOnUse" y2="109.467" x2="89.8074" y1="79.8718" x1="119.403" id="paint6_linear_3259_9374">
<stop stop-color="#F0B90B"></stop>
<stop stop-color="#F8D33A" offset="1"></stop>
</linearGradient>
<clipPath id="clip0_3259_9374">
<rect fill="white" height="172" width="172"></rect>
</clipPath>
</defs>
</svg>
