<svg xmlns="http://www.w3.org/2000/svg" fill="none" viewBox="0 0 172 172" height="172" width="172">
<path stroke-width="15.8052" stroke="#FFD4C3" d="M83.8925 132.456L49.2849 123.795C44.1723 122.516 42.8164 115.887 47.016 112.702L79.8011 87.8437L95.7593 87.624"></path>
<path stroke-width="15.8052" stroke="#FFD4C3" d="M92.3508 132.697L128.06 123.806C133.192 122.528 134.541 115.866 130.311 112.692L97.6491 88.1844L81.6909 87.9647"></path>
<path stroke-width="19.7998" stroke="#929AA5" d="M115.426 102.08L95.1437 86.6309L81.8633 86.8681L62.5464 101.356"></path>
<path fill="#F8D33A" d="M76.436 65.0921V78.7722H101.014V65.0921C101.014 58.3052 95.5119 52.8032 88.7249 52.8032C81.938 52.8032 76.436 58.3052 76.436 65.0921Z"></path>
<path fill="#FFD4C3" d="M93.2733 64.3626C90.3598 62.2978 89.6717 58.2621 91.7365 55.3486C93.8012 52.4352 97.8369 51.7471 100.75 53.8119L122.942 69.5389L135.917 51.8186L138.155 53.4573L138.721 52.942L155.804 53.2499C156.135 53.2559 156.329 53.6236 156.148 53.9004L155.01 55.6437C153.857 57.4081 152.084 58.6755 150.041 59.195L145.743 60.2881L133.28 77.3097C129.16 82.9362 121.287 84.2158 115.598 80.1836L93.2733 64.3626Z" clip-rule="evenodd" fill-rule="evenodd"></path>
<path stroke-linecap="round" stroke-width="4.20566" stroke="#FFD4C3" d="M139.99 50.0816L136.515 54.5659"></path>
<path fill="#FFD4C3" d="M83.0749 64.3676C85.9901 62.3053 86.6816 58.2702 84.6192 55.355C82.5569 52.4397 78.5219 51.7483 75.6066 53.8106L54.884 68.4703L42.4445 50.803L40.5878 52.1104L40.066 51.58L22.9913 50.9565C22.6608 50.9445 22.4464 51.301 22.6119 51.5873L23.6541 53.3901C24.709 55.2147 26.4104 56.5768 28.4216 57.2069L31.9067 58.2986L44.4057 76.0504C48.4712 81.8245 56.452 83.2012 62.2171 79.1229L83.0749 64.3676Z" clip-rule="evenodd" fill-rule="evenodd"></path>
<path stroke-linecap="round" stroke-width="4.20566" stroke="#FFD4C3" d="M39.0234 49.5323L42.2117 54.2245"></path>
<path fill="#E6E8EA" d="M87.868 149.654L87.868 123.698L81.4538 123.698L81.4538 132.832L76.1172 139.463L81.9005 151.06C83.3843 154.035 87.868 152.979 87.868 149.654Z"></path>
<path fill="#E6E8EA" d="M88.6686 149.714L88.6686 123.872L95.0829 123.872L95.0829 132.966L100.419 139.568L94.6309 151.124C93.1439 154.093 88.6686 153.035 88.6686 149.714Z"></path>
<path fill="#935A30" d="M96.1872 30.996L101.62 38.2097L77.2325 38.7228L82.9069 30.996C88.6054 25.1044 94.1348 28.5412 96.1872 30.996Z"></path>
<path fill="#935A30" d="M89.5839 44.7863C90.659 47.1797 93.0636 48.8465 95.8574 48.8465C99.6538 48.8465 102.731 45.7689 102.731 41.9725C102.731 38.1761 99.6538 35.0985 95.8574 35.0985C93.0636 35.0985 90.659 36.7652 89.5839 39.1587C88.5087 36.7653 86.1042 35.0985 83.3103 35.0985C79.5139 35.0985 76.4363 38.1761 76.4363 41.9725C76.4363 45.7689 79.5139 48.8465 83.3103 48.8465C86.1042 48.8465 88.5087 47.1797 89.5839 44.7863Z" clip-rule="evenodd" fill-rule="evenodd"></path>
<circle fill="#FFD4C3" transform="matrix(-1 0 0 1 97.4785 30.3866)" r="8.20076" cy="8.20076" cx="8.20076"></circle>
<mask height="17" width="17" y="30" x="81" maskUnits="userSpaceOnUse" style="mask-type:alpha" id="mask0_3259_9252">
<circle fill="#935A30" transform="matrix(4.21468e-08 -1.00051 -0.99949 -4.21468e-08 97.478 46.7886)" r="8.20492" cy="8.20492" cx="8.20492"></circle>
</mask>
<g mask="url(#mask0_3259_9252)">
<path fill="#935A30" d="M89.259 35.4886C90.2002 37.3233 92.1108 38.5787 94.3146 38.5787C97.4508 38.5787 99.9932 36.0363 99.9932 32.9001C99.9932 29.764 97.4508 27.2216 94.3146 27.2216C92.1108 27.2216 90.2002 28.477 89.259 30.3117C88.3177 28.477 86.4071 27.2216 84.2033 27.2216C81.0671 27.2216 78.5248 29.764 78.5248 32.9002C78.5248 36.0363 81.0671 38.5787 84.2033 38.5787C86.4071 38.5787 88.3177 37.3233 89.259 35.4886Z" clip-rule="evenodd" fill-rule="evenodd"></path>
</g>
<path stroke-linejoin="round" stroke-linecap="square" stroke-width="12.9315" stroke="#F8D33A" d="M68.2199 66.9602L79.3364 59.0943L97.0162 59.0943L110.139 68.3912"></path>
</svg>
