<svg xmlns="http://www.w3.org/2000/svg" fill="none" viewBox="0 0 570 360" height="360" width="570">
<path fill="url(#paint0_linear_2893_19200)" d="M279.198 145.767C308.77 175.339 356.715 175.339 386.287 145.767C415.858 116.195 415.859 68.2503 386.287 38.6786C356.715 9.10697 308.77 9.10695 279.198 38.6786L225.654 92.2228L279.198 145.767Z"></path>
<path stroke-width="2.9793" stroke="white" d="M324.974 128.007C331.561 128.007 336.901 122.667 336.901 116.079V116.079C336.901 109.492 331.561 104.152 324.974 104.152L313.047 104.152L313.047 116.079C313.047 122.667 318.387 128.007 324.974 128.007V128.007Z"></path>
<path stroke-width="2.9793" stroke="white" d="M324.974 56.4464C331.561 56.4464 336.901 61.7863 336.901 68.3735V68.3735C336.901 74.9606 331.561 80.3005 324.974 80.3005L313.047 80.3005L313.047 68.3735C313.047 61.7863 318.387 56.4464 324.974 56.4464V56.4464Z"></path>
<path stroke-width="2.9793" stroke="white" d="M313.047 104.152L313.047 80.2984L253.134 80.2983L253.134 104.152L313.047 104.152Z"></path>
<rect fill="url(#paint1_linear_2893_19200)" transform="matrix(2.18557e-08 -1 -1 -2.18557e-08 258.13 124.674)" height="42.1612" width="64.9054"></rect>
<path fill="#474D57" d="M215.969 115.802L215.969 68.648L200.436 68.648L200.436 115.802L215.969 115.802Z"></path>
<path fill="#FFBEA6" d="M243.097 285.488L270.068 247.461L288.411 260.471L260.849 299.332C253.989 309.005 240.585 311.282 230.915 304.419L187.011 273.257L200.027 254.919L243.097 285.488Z" clip-rule="evenodd" fill-rule="evenodd"></path>
<path fill="#CACED4" d="M187.012 273.257L213.867 292.319L226.883 273.98L200.028 254.919L187.012 273.257Z" clip-rule="evenodd" fill-rule="evenodd"></path>
<path fill="#474D57" d="M173.007 285.07L196.295 252.259L209.565 261.678L196.651 280.083L173.007 285.07Z"></path>
<path fill="#FFBEA6" d="M303.469 227.61C304.313 232.62 309.059 235.997 314.07 235.152L357.732 227.792C362.162 227.045 366.111 224.56 368.702 220.89L390.942 189.379L375.909 178.769L354.04 209.755L311.011 217.009C306.001 217.853 302.624 222.599 303.469 227.61Z" clip-rule="evenodd" fill-rule="evenodd"></path>
<path fill="#929AA5" d="M301.378 227.969C302.224 232.979 306.971 236.355 311.981 235.509L345.576 229.841L342.515 211.698L308.919 217.366C303.909 218.212 300.533 222.959 301.378 227.969Z" clip-rule="evenodd" fill-rule="evenodd"></path>
<path fill="#FFBEA6" d="M388.909 192.178C401.005 176.374 386.751 169.135 386.751 169.135L376.273 182.825C376.273 182.825 389.066 191.422 388.909 192.178Z"></path>
<path fill="#FFBEA6" d="M374.441 185.419C373.274 184.625 372.972 183.035 373.767 181.868L378.33 175.163C379.125 173.997 380.714 173.695 381.881 174.489C383.048 175.283 383.35 176.873 382.556 178.039L377.992 184.744C377.197 185.911 375.608 186.213 374.441 185.419Z" clip-rule="evenodd" fill-rule="evenodd"></path>
<path fill="#FFBEA6" d="M315.309 221.997L307.809 216.669L229.281 160.881L218.625 175.881L297.153 231.669L304.653 236.997L315.309 221.997Z" clip-rule="evenodd" fill-rule="evenodd"></path>
<path fill="#929AA5" d="M315.307 221.992L283.087 199.119L272.436 214.122L304.655 236.995L315.307 221.992Z" clip-rule="evenodd" fill-rule="evenodd"></path>
<path fill="#FFBEA6" d="M234.237 169.067L226.017 181.1L216.809 174.489C212.17 171.159 211.159 164.675 214.564 160.091L217.121 156.647L234.237 169.067Z"></path>
<path fill="#FFBEA6" d="M228.89 156.237C230.291 156.068 231.564 157.067 231.733 158.468L232.576 165.468C232.745 166.869 231.745 168.142 230.344 168.311C228.943 168.479 227.67 167.48 227.501 166.079L226.658 159.079C226.49 157.678 227.489 156.405 228.89 156.237Z" clip-rule="evenodd" fill-rule="evenodd"></path>
<path fill="#FFBEA6" d="M312.312 187.086C305.908 188.173 301.598 194.251 302.686 200.662C303.775 207.073 309.849 211.389 316.253 210.302C322.657 209.215 326.967 203.136 325.879 196.725C324.79 190.315 318.716 185.999 312.312 187.086Z"></path>
<mask height="25" width="25" y="186" x="302" maskUnits="userSpaceOnUse" style="mask-type:alpha" id="mask0_2893_19200">
<path fill="#1E2026" d="M304.677 191.881C300.917 197.178 302.168 204.523 307.471 208.287C312.773 212.051 320.12 210.807 323.88 205.51C327.64 200.213 326.389 192.867 321.086 189.104C315.784 185.34 308.437 186.583 304.677 191.881Z"></path>
</mask>
<g mask="url(#mask0_2893_19200)">
<path fill="#474D57" d="M312.203 181.23L294.026 184.316L297.134 202.624L307.709 209.84L315.311 199.539L312.203 181.23Z"></path>
</g>
<path fill="#929AA5" d="M287.31 223.234L275.408 239.935L303.914 260.279L315.787 243.394C321.312 235.537 319.446 224.692 311.614 219.133C303.768 213.564 292.895 215.399 287.31 223.234Z"></path>
<path fill="#474D57" d="M251.658 273.448L275.682 239.555L294.036 252.565L270.012 286.458L251.658 273.448Z" clip-rule="evenodd" fill-rule="evenodd"></path>
<path fill="#FFBEA6" d="M373.176 336.102L329.226 305.133L282.27 271.805C277.206 268.211 276.015 261.192 279.609 256.128C283.204 251.064 290.223 249.872 295.287 253.467L342.195 286.761L342.227 286.783L386.129 317.719L373.176 336.102Z" clip-rule="evenodd" fill-rule="evenodd"></path>
<path fill="#474D57" d="M304.32 287.465L273.094 265.295L286.118 246.951L317.344 269.121L304.32 287.465Z" clip-rule="evenodd" fill-rule="evenodd"></path>
<path fill="#CACED4" d="M373.18 336.102L351.259 320.658L364.211 302.274L386.132 317.718L373.18 336.102Z" clip-rule="evenodd" fill-rule="evenodd"></path>
<path fill="#474D57" d="M405.923 310.678L382.858 343.077L370.043 333.893L383.015 315.534L405.923 310.678Z"></path>
<path fill="#474D57" d="M294.314 252.766L275.673 239.551L272.89 243.476C267.24 251.447 269.121 262.49 277.092 268.14L281.3 271.124L294.314 252.766Z"></path>
<defs>
<linearGradient gradientUnits="userSpaceOnUse" y2="16.4999" x2="317.06" y1="167.946" x1="317.06" id="paint0_linear_2893_19200">
<stop stop-color="#F0B90B"></stop>
<stop stop-color="#F8D33A" offset="1"></stop>
</linearGradient>
<linearGradient gradientUnits="userSpaceOnUse" y2="42.1612" x2="0" y1="42.1612" x1="64.9054" id="paint1_linear_2893_19200">
<stop stop-color="#1E2026"></stop>
<stop offset="1"></stop>
</linearGradient>
</defs>
</svg>
