<svg xmlns="http://www.w3.org/2000/svg" fill="none" viewBox="0 0 570 360" height="360" width="570">
<path fill="#FFBEA6" d="M245.995 289.659L272.576 233.756L292.471 243.216L265.756 299.401C263.917 303.268 260.942 306.481 257.228 308.611L225.365 326.89L214.403 307.781L245.995 289.659Z" clip-rule="evenodd" fill-rule="evenodd"></path>
<path fill="#76808E" d="M254.752 271.236L272.577 233.754L292.471 243.215L274.647 280.697L254.752 271.236Z" clip-rule="evenodd" fill-rule="evenodd"></path>
<path fill="#0B0E11" d="M184.189 324.879L215.791 306.99L226.642 326.159L208.154 336.844L203.563 359.105L193.876 341.992L184.189 324.879Z"></path>
<path fill="#FFBEA6" d="M292.872 210.374C293.978 215.227 298.808 218.264 303.661 217.158L341.719 208.484C345.385 207.648 348.655 205.587 350.991 202.64L377.079 169.723L362.953 158.528L337.195 191.028L299.656 199.585C294.803 200.691 291.765 205.521 292.872 210.374Z" clip-rule="evenodd" fill-rule="evenodd"></path>
<path fill="#CACED3" d="M294.876 219.163L329.147 211.346L325.139 193.773L290.868 201.59L294.876 219.163Z" clip-rule="evenodd" fill-rule="evenodd"></path>
<path fill="#FFBEA6" d="M360.296 152.052C361.844 152.002 363.138 153.216 363.188 154.763L363.53 165.414C363.58 166.961 362.366 168.256 360.819 168.305C359.272 168.355 357.977 167.141 357.927 165.594L357.585 154.944C357.535 153.396 358.749 152.102 360.296 152.052Z" clip-rule="evenodd" fill-rule="evenodd"></path>
<path fill="#FFBEA6" d="M325.713 296.206L289.423 257.916L305.412 242.762L341.949 281.313L369.031 311.819L352.557 326.444L325.713 296.206Z" clip-rule="evenodd" fill-rule="evenodd"></path>
<path fill="#76808E" d="M311.382 281.083L289.423 257.917L305.411 242.762L327.37 265.928L311.382 281.083Z" clip-rule="evenodd" fill-rule="evenodd"></path>
<path fill="#FFBEA6" d="M292.733 210.404C291.622 205.552 286.789 202.519 281.937 203.63L244.591 212.181C240.158 213.196 236.339 215.995 234.037 219.917L214.439 253.295L229.982 262.421L249.25 229.605L285.96 221.2C290.811 220.089 293.844 215.255 292.733 210.404Z" clip-rule="evenodd" fill-rule="evenodd"></path>
<path fill="#CACED3" d="M290.724 201.619L253.878 210.05L257.898 227.62L294.745 219.189L290.724 201.619Z" clip-rule="evenodd" fill-rule="evenodd"></path>
<path fill="#FFBEA6" d="M214.189 269.543L219.619 274.585L227.392 259.306L214.773 252.711L212.21 257.416C210.021 261.436 210.836 266.428 214.189 269.543Z"></path>
<path fill="#FFBEA6" d="M229.944 269.481C231.298 269.197 232.165 267.87 231.881 266.517L230.541 260.126C230.257 258.773 228.93 257.906 227.577 258.19C226.224 258.474 225.357 259.8 225.641 261.154L226.981 267.544C227.264 268.897 228.591 269.764 229.944 269.481Z" clip-rule="evenodd" fill-rule="evenodd"></path>
<path fill="#0B0E11" d="M373.824 349.79L349.41 322.899L365.721 308.09L380.218 323.773L402.948 323.349L373.824 349.79Z"></path>
<path fill="#FFBEA6" d="M303.41 176.367C306.599 181.892 304.706 188.956 299.182 192.146C293.657 195.335 286.593 193.442 283.404 187.918C280.214 182.393 282.107 175.329 287.631 172.14C293.156 168.95 300.22 170.843 303.41 176.367Z"></path>
<path fill="#0B0E11" d="M296.402 170.987L290.423 193.301C284.261 191.65 280.605 185.316 282.256 179.155C283.907 172.993 290.24 169.336 296.402 170.987Z" clip-rule="evenodd" fill-rule="evenodd"></path>
<path fill="#0B0E11" d="M266.079 179.767C268.086 183.244 272.533 184.436 276.01 182.428C276.031 182.416 276.052 182.404 276.073 182.391L282.306 178.793L278.709 172.563C278.697 172.541 278.684 172.519 278.671 172.497C276.664 169.019 272.217 167.828 268.74 169.836C265.262 171.843 264.071 176.29 266.079 179.767Z" clip-rule="evenodd" fill-rule="evenodd"></path>
<path fill="#FFBEA6" d="M377.536 161.019C379.763 162.793 380.132 166.036 378.361 168.266L372.257 175.948L360.564 162.066L363.423 157.265C365.023 154.578 368.627 153.921 371.073 155.87L377.536 161.019Z"></path>
<path fill="#76808E" d="M300.03 263.622L267.094 255.15L272.582 233.815L305.518 242.287L300.03 263.622Z" clip-rule="evenodd" fill-rule="evenodd"></path>
<path fill="#CACED3" d="M277.874 213.852L272.492 233.939L305.386 242.753L310.768 222.666C313.202 213.583 307.812 204.246 298.728 201.812C289.645 199.378 280.308 204.769 277.874 213.852Z"></path>
<path fill="#CACED3" d="M439.348 229.246C439.35 229.247 439.35 229.248 437.333 231.285C435.315 233.323 435.315 233.322 435.314 233.321L435.308 233.316L433.614 231.638C432.499 230.534 430.855 228.905 428.739 226.809C424.507 222.615 418.387 216.55 410.833 209.059C395.725 194.079 374.883 173.4 351.947 150.607C306.079 105.024 251.829 50.9759 218.326 17.1425L222.401 13.1076C255.885 46.9223 310.12 100.955 355.99 146.54C378.923 169.331 399.763 190.008 414.87 204.987C422.424 212.477 428.544 218.542 432.775 222.735C434.891 224.831 436.535 226.46 437.65 227.564L439.348 229.246Z" clip-rule="evenodd" fill-rule="evenodd"></path>
<path fill="#0B0E11" d="M95.959 105.26L128.063 73.156L210.162 155.256L178.059 187.359L95.959 105.26Z"></path>
<path fill="#0B0E11" d="M128.063 107.403L218.342 17.1236L300.442 99.2234L210.163 189.503L128.063 107.403Z"></path>
<path fill="#F0B90B" d="M128.07 73.1501L145.201 90.2811L128.07 107.412V73.1501Z"></path>
<path fill="#76808E" d="M128.07 73.1501L145.201 90.2811L128.07 107.412V73.1501Z"></path>
<path fill="#F0B90B" d="M178.469 127.725L191.201 127.725L191.201 114.992L178.469 114.992L178.469 127.725Z"></path>
<path fill="#F0B90B" d="M200.296 127.725L234.855 127.725L234.855 93.1651L222.123 93.1651L222.123 114.992H200.296L200.296 127.725Z"></path>
<path fill="#F0B90B" d="M200.296 105.898H213.028L213.028 93.1651L200.296 93.1652V105.898Z"></path>
<path fill="#F0B90B" d="M191.201 105.898L178.469 105.898L178.469 71.3381L213.028 71.3381V84.0706L191.201 84.0706L191.201 105.898Z"></path>
<path fill="#F0B90B" d="M222.123 84.0706L234.855 84.0706L234.855 71.3381L222.123 71.3381L222.123 84.0706Z"></path>
<path fill="white" d="M289.135 219.667L295.705 215.874L299.498 222.444L292.928 226.237L289.135 219.667Z"></path>
</svg>
